{
  "accessors": [
    {
      "bufferView": 2,
      "componentType": 5126,
      "count": 4064,
      "max": [
        -5.501142501831055,
        42.06389617919922,
        149.87110900878906
      ],
      "min": [
        -27.43759536743164,
        -42.06390380859375,
        17.090476989746094
      ],
      "type": "VEC3"
    },
    {
      "bufferView": 2,
      "byteOffset": 48768,
      "componentType": 5126,
      "count": 4064,
      "max": [
        0.9998760223388672,
        0.9997521042823792,
        0.9145205616950989
      ],
      "min": [
        -0.9997521042823792,
        -0.9997521042823792,
        -0.9428090453147888
      ],
      "type": "VEC3"
    },
    {
      "bufferView": 1,
      "componentType": 5126,
      "count": 4064,
      "max": [
        0.9912109375,
        0.9952507019042969
      ],
      "min": [
        0.0021610260009765625,
        0.0048828125
      ],
      "type": "VEC2"
    },
    {
      "bufferView": 0,
      "componentType": 5125,
      "count": 14004,
      "type": "SCALAR"
    },
    {
      "bufferView": 2,
      "byteOffset": 97536,
      "componentType": 5126,
      "count": 2642,
      "max": [
        21.293357849121094,
        9.264796257019043,
        179.81687927246094
      ],
      "min": [
        -0.8126640319824219,
        -9.264802932739258,
        148.55516052246094
      ],
      "type": "VEC3"
    },
    {
      "bufferView": 2,
      "byteOffset": 129240,
      "componentType": 5126,
      "count": 2642,
      "max": [
        0.9999690055847168,
        0.9993805885314941,
        0.9990094900131226
      ],
      "min": [
        -0.9931116700172424,
        -0.9993805885314941,
        -0.9998760223388672
      ],
      "type": "VEC3"
    },
    {
      "bufferView": 1,
      "byteOffset": 32512,
      "componentType": 5126,
      "count": 2642,
      "max": [
        0.9921875,
        1.0051803588867188
      ],
      "min": [
        0.0070343017578125,
        0.0146484375
      ],
      "type": "VEC2"
    },
    {
      "bufferView": 0,
      "byteOffset": 56016,
      "componentType": 5125,
      "count": 13848,
      "type": "SCALAR"
    },
    {
      "bufferView": 2,
      "byteOffset": 160944,
      "componentType": 5126,
      "count": 9827,
      "max": [
        29.753549575805664,
        32.65667724609375,
        114.10032653808594
      ],
      "min": [
        -20.957725524902344,
        -32.65667724609375,
        0.0
      ],
      "type": "VEC3"
    },
    {
      "bufferView": 2,
      "byteOffset": 278868,
      "componentType": 5126,
      "count": 9827,
      "max": [
        1.0,
        0.9999690055847168,
        0.999442458152771
      ],
      "min": [
        -1.0,
        -0.9998760223388672,
        -1.0
      ],
      "type": "VEC3"
    },
    {
      "bufferView": 1,
      "byteOffset": 53648,
      "componentType": 5126,
      "count": 9827,
      "max": [
        0.998046875,
        0.9980182647705078
      ],
      "min": [
        0.000850677490234375,
        0.00244140625
      ],
      "type": "VEC2"
    },
    {
      "bufferView": 0,
      "byteOffset": 111408,
      "componentType": 5125,
      "count": 37293,
      "type": "SCALAR"
    },
    {
      "bufferView": 2,
      "byteOffset": 396792,
      "componentType": 5126,
      "count": 2062,
      "max": [
        22.11835479736328,
        12.133777618408203,
        180.07565307617188
      ],
      "min": [
        6.543229103088379,
        -10.764533042907715,
        153.48204040527344
      ],
      "type": "VEC3"
    },
    {
      "bufferView": 2,
      "byteOffset": 421536,
      "componentType": 5126,
      "count": 2062,
      "max": [
        0.9998451471328735,
        0.9995043873786926,
        0.9944407343864441
      ],
      "min": [
        -0.9997212290763855,
        -0.9995043873786926,
        -0.9927725195884705
      ],
      "type": "VEC3"
    },
    {
      "bufferView": 1,
      "byteOffset": 132264,
      "componentType": 5126,
      "count": 2062,
      "max": [
        0.99462890625,
        0.9917144775390625
      ],
      "min": [
        0.00792694091796875,
        0.0068359375
      ],
      "type": "VEC2"
    },
    {
      "bufferView": 0,
      "byteOffset": 260580,
      "componentType": 5125,
      "count": 8400,
      "type": "SCALAR"
    },
    {
      "bufferView": 2,
      "byteOffset": 446280,
      "componentType": 5126,
      "count": 9602,
      "max": [
        33.701576232910156,
        53.89781188964844,
        190.71621704101563
      ],
      "min": [
        -33.701576232910156,
        -53.89781188964844,
        89.59791564941406
      ],
      "type": "VEC3"
    },
    {
      "bufferView": 2,
      "byteOffset": 561504,
      "componentType": 5126,
      "count": 9602,
      "max": [
        0.9995972514152527,
        0.9994733929634094,
        0.9999690055847168
      ],
      "min": [
        -0.9999690055847168,
        -0.9998451471328735,
        -0.9995972514152527
      ],
      "type": "VEC3"
    },
    {
      "bufferView": 1,
      "byteOffset": 148760,
      "componentType": 5126,
      "count": 9602,
      "max": [
        0.99658203125,
        0.9986448287963867
      ],
      "min": [
        0.0021343231201171875,
        0.00537109375
      ],
      "type": "VEC2"
    },
    {
      "bufferView": 0,
      "byteOffset": 294180,
      "componentType": 5125,
      "count": 39546,
      "type": "SCALAR"
    }
  ],
  "asset": {
    "extras": {
      "author": "Render_Vendor (https://sketchfab.com/Render_Vendor)",
      "license": "CC-BY-4.0 (http://creativecommons.org/licenses/by/4.0/)",
      "source": "https://sketchfab.com/3d-models/blood-raven-3d-model-c6bea9e6b22340229988c37219ebd4e7",
      "title": "BLOOD RAVEN 3D MODEL"
    },
    "generator": "Sketchfab-16.33.0",
    "version": "2.0"
  },
  "bufferViews": [
    {
      "buffer": 0,
      "byteLength": 452364,
      "name": "floatBufferViews",
      "target": 34963
    },
    {
      "buffer": 0,
      "byteLength": 225576,
      "byteOffset": 452364,
      "byteStride": 8,
      "name": "floatBufferViews",
      "target": 34962
    },
    {
      "buffer": 0,
      "byteLength": 676728,
      "byteOffset": 677940,
      "byteStride": 12,
      "name": "floatBufferViews",
      "target": 34962
    }
  ],
  "buffers": [
    {
      "byteLength": 1354668,
      "uri": "scene.bin"
    }
  ],
  "extensionsUsed": [
    "KHR_materials_specular"
  ],
  "images": [
    {
      "uri": "textures/FEATHER_Mat_baseColor.png"
    },
    {
      "uri": "textures/LOWER_BODY_Mat_baseColor.png"
    },
    {
      "uri": "textures/MASK_Mat_baseColor.png"
    },
    {
      "uri": "textures/UPPER_BODY_Mat_baseColor.png"
    }
  ],
  "materials": [
    {
      "doubleSided": true,
      "extensions": {
        "KHR_materials_specular": {
          "specularColorFactor": [
            1.0,
            1.0,
            1.0
          ],
          "specularFactor": 0.2
        }
      },
      "name": "FEATHER_Mat",
      "pbrMetallicRoughness": {
        "baseColorTexture": {
          "index": 0
        },
        "metallicFactor": 0.0,
        "roughnessFactor": 0.9577051494623774
      }
    },
    {
      "doubleSided": true,
      "name": "WorldGridMaterial",
      "pbrMetallicRoughness": {
        "baseColorFactor": [
          0.215861,
          0.215861,
          0.215861,
          1.0
        ],
        "metallicFactor": 0.0,
        "roughnessFactor": 0.9577051494623774
      }
    },
    {
      "doubleSided": true,
      "extensions": {
        "KHR_materials_specular": {
          "specularColorFactor": [
            1.0,
            1.0,
            1.0
          ],
          "specularFactor": 0.2
        }
      },
      "name": "LOWER_BODY_Mat",
      "pbrMetallicRoughness": {
        "baseColorTexture": {
          "index": 1
        },
        "metallicFactor": 0.0,
        "roughnessFactor": 0.9577051494623774
      }
    },
    {
      "doubleSided": true,
      "extensions": {
        "KHR_materials_specular": {
          "specularColorFactor": [
            1.0,
            1.0,
            1.0
          ],
          "specularFactor": 0.2
        }
      },
      "name": "MASK_Mat",
      "pbrMetallicRoughness": {
        "baseColorTexture": {
          "index": 2
        },
        "metallicFactor": 0.0,
        "roughnessFactor": 0.9577051494623774
      }
    },
    {
      "doubleSided": true,
      "extensions": {
        "KHR_materials_specular": {
          "specularColorFactor": [
            1.0,
            1.0,
            1.0
          ],
          "specularFactor": 0.2
        }
      },
      "name": "UPPER_BODY_Mat",
      "pbrMetallicRoughness": {
        "baseColorTexture": {
          "index": 3
        },
        "metallicFactor": 0.0,
        "roughnessFactor": 0.9577051494623774
      }
    }
  ],
  "meshes": [
    {
      "name": "BLOOD_RAVEN_FEATHER_Mat_0",
      "primitives": [
        {
          "attributes": {
            "NORMAL": 1,
            "POSITION": 0,
            "TEXCOORD_0": 2
          },
          "indices": 3,
          "material": 0,
          "mode": 4
        }
      ]
    },
    {
      "name": "BLOOD_RAVEN_WorldGridMaterial_0",
      "primitives": [
        {
          "attributes": {
            "NORMAL": 5,
            "POSITION": 4,
            "TEXCOORD_0": 6
          },
          "indices": 7,
          "material": 1,
          "mode": 4
        }
      ]
    },
    {
      "name": "BLOOD_RAVEN_LOWER_BODY_Mat_0",
      "primitives": [
        {
          "attributes": {
            "NORMAL": 9,
            "POSITION": 8,
            "TEXCOORD_0": 10
          },
          "indices": 11,
          "material": 2,
          "mode": 4
        }
      ]
    },
    {
      "name": "BLOOD_RAVEN_MASK_Mat_0",
      "primitives": [
        {
          "attributes": {
            "NORMAL": 13,
            "POSITION": 12,
            "TEXCOORD_0": 14
          },
          "indices": 15,
          "material": 3,
          "mode": 4
        }
      ]
    },
    {
      "name": "BLOOD_RAVEN_UPPER_BODY_Mat_0",
      "primitives": [
        {
          "attributes": {
            "NORMAL": 17,
            "POSITION": 16,
            "TEXCOORD_0": 18
          },
          "indices": 19,
          "material": 4,
          "mode": 4
        }
      ]
    }
  ],
  "nodes": [
    {
      "children": [
        1
      ],
      "matrix": [
        1.0,
        0.0,
        0.0,
        0.0,
        0.0,
        -0.0006956872530283764,
        0.9999997615814209,
        0.0,
        0.0,
        -0.9999997615814209,
        -0.0006956872530283764,
        0.0,
        0.0,
        0.0,
        0.0,
        1.0
      ],
      "name": "Sketchfab_model"
    },
    {
      "children": [
        2
      ],
      "matrix": [
        0.009999999776482582,
        0.0,
        0.0,
        0.0,
        0.0,
        -0.009999999776482582,
        0.0,
        0.0,
        0.0,
        0.0,
        -0.009999999776482582,
        0.0,
        0.0,
        0.0,
        0.0,
        1.0
      ],
      "name": "6d587311bbf44b3ebbe3602d6cc9fab6.fbx"
    },
    {
      "children": [
        3
      ],
      "name": "RootNode"
    },
    {
      "children": [
        4,
        5,
        6,
        7,
        8
      ],
      "name": "BLOOD_RAVEN"
    },
    {
      "mesh": 0,
      "name": "BLOOD_RAVEN_FEATHER_Mat_0"
    },
    {
      "mesh": 1,
      "name": "BLOOD_RAVEN_WorldGridMaterial_0"
    },
    {
      "mesh": 2,
      "name": "BLOOD_RAVEN_LOWER_BODY_Mat_0"
    },
    {
      "mesh": 3,
      "name": "BLOOD_RAVEN_MASK_Mat_0"
    },
    {
      "mesh": 4,
      "name": "BLOOD_RAVEN_UPPER_BODY_Mat_0"
    }
  ],
  "samplers": [
    {
      "magFilter": 9729,
      "minFilter": 9987,
      "wrapS": 10497,
      "wrapT": 10497
    }
  ],
  "scene": 0,
  "scenes": [
    {
      "name": "Sketchfab_Scene",
      "nodes": [
        0
      ]
    }
  ],
  "textures": [
    {
      "sampler": 0,
      "source": 0
    },
    {
      "sampler": 0,
      "source": 1
    },
    {
      "sampler": 0,
      "source": 2
    },
    {
      "sampler": 0,
      "source": 3
    }
  ]
}
